<svg width="360" height="300" viewBox="0 0 360 300" xmlns="http://www.w3.org/2000/svg">
  <defs>
    <pattern id="purple-stripes" patternUnits="userSpaceOnUse" width="12" height="12" patternTransform="rotate(35)">
      <rect width="6" height="12" fill="#d4a7ff"/>
      <rect x="6" width="6" height="12" fill="transparent"/>
    </pattern>
    <linearGradient id="purple-fade" x1="0%" y1="0%" x2="100%" y2="100%">
      <stop offset="0%" stop-color="#e1baff" stop-opacity="0.95"/>
      <stop offset="100%" stop-color="#edd2ff" stop-opacity="0.6"/>
    </linearGradient>
  </defs>
  <path
    d="M126 14C52 22 3 84 2 149c-1 65 44 136 131 149 87 13 170-34 206-97 36-63 11-149-68-183-79-34-85-12-145-4Z"
    fill="url(#purple-stripes)"
  />
  <path
    d="M126 14C52 22 3 84 2 149c-1 65 44 136 131 149 87 13 170-34 206-97 36-63 11-149-68-183-79-34-85-12-145-4Z"
    fill="url(#purple-fade)"
  />
</svg>
