<svg width="360" height="300" viewBox="0 0 360 300" xmlns="http://www.w3.org/2000/svg">
  <defs>
    <pattern id="yellow-stripes" patternUnits="userSpaceOnUse" width="12" height="12" patternTransform="rotate(35)">
      <rect width="6" height="12" fill="#ffd68f"/>
      <rect x="6" width="6" height="12" fill="transparent"/>
    </pattern>
    <linearGradient id="yellow-fade" x1="0%" y1="0%" x2="100%" y2="100%">
      <stop offset="0%" stop-color="#ffe0a8" stop-opacity="0.95"/>
      <stop offset="100%" stop-color="#ffecc7" stop-opacity="0.6"/>
    </linearGradient>
  </defs>
  <path
    d="M132 8C57 10 5 70 5 140c0 70 46 148 133 156s172-30 205-102c33-72-4-159-81-187C185-21 207 6 132 8Z"
    fill="url(#yellow-stripes)"
  />
  <path
    d="M132 8C57 10 5 70 5 140c0 70 46 148 133 156s172-30 205-102c33-72-4-159-81-187C185-21 207 6 132 8Z"
    fill="url(#yellow-fade)"
  />
</svg>
